<svg xmlns="http://www.w3.org/2000/svg" viewBox="0 12.199999809265137 429.75 40.29999923706055" data-asc="1.036" width="429.75" height="40.29999923706055"><defs/><g fill="#53b5ea"><g transform="translate(0, 0)"><path d="M0 51.80L0 43.60L2.50 43.60L2.50 21.10L0 21.10L0 12.90L19 12.90L19 21.10L16.50 21.10L16.50 43.60L19 43.60L19 51.80L0 51.80ZM54.10 43.60L54.10 51.80L38.30 51.80L38.30 43.60L40.40 43.60L40.40 35.40Q40.40 33.75 39.70 32.98Q39 32.20 37.60 32.20Q34.60 32.20 34.60 35.40L34.60 43.60L36.70 43.60L36.70 51.80L20.90 51.80L20.90 43.60L23.10 43.60L23.10 32.20L20.90 32.20L20.90 24.00L34.60 24.00L34.60 27.90Q38.20 23.30 43.60 23.30Q47.75 23.30 49.83 25.90Q51.90 28.50 51.90 33.05L51.90 43.60L54.10 43.60ZM68.05 52.50Q62.75 52.50 60.08 49.93Q57.40 47.35 57.40 41.25L57.40 32.20L55.20 32.20L55.20 24.00Q57.10 24.00 58.05 23.03Q59.00 22.05 59.00 20.35L59.00 18.10L69.60 18.10L69.60 24.00L76.35 24.00L76.35 32.20L69.60 32.20L69.60 40.40Q69.60 42.05 70.33 42.83Q71.05 43.60 72.50 43.60Q74.40 43.60 76.65 43.15L76.65 51.00Q75.25 51.55 72.88 52.03Q70.50 52.50 68.05 52.50ZM99.60 23.30Q100.60 23.30 101.50 23.50Q102.40 23.70 103.00 24.00L103.00 33.55Q100.95 32.70 98.60 32.70Q95.45 32.70 93.75 34.35Q92.05 36 92.05 39.25L92.05 43.60L96.55 43.60L96.55 51.80L78.35 51.80L78.35 43.60L80.55 43.60L80.55 32.20L78.35 32.20L78.35 24.00L92.05 24.00L92.05 27.65Q93.45 25.55 95.25 24.43Q97.05 23.30 99.60 23.30ZM133.75 43.60L133.75 51.80L120.55 51.80L120.55 48.40Q119.45 50.00 117.48 51.25Q115.50 52.50 112.65 52.50Q108.90 52.50 106.75 50.50Q104.60 48.50 104.60 44.85Q104.60 35.40 120.65 35.15Q120.50 33.45 119.35 32.83Q118.20 32.20 115.45 32.20Q113.20 32.20 110.63 32.68Q108.05 33.15 105.90 33.95L105.90 24.75Q108.55 24.10 111.65 23.70Q114.75 23.30 117.70 23.30Q125.15 23.30 128.35 26.00Q131.55 28.70 131.55 34.35L131.55 43.60L133.75 43.60M120.55 40.10Q118.30 40.10 117.08 40.70Q115.85 41.30 115.85 42.70Q115.85 43.55 116.38 44.08Q116.90 44.60 117.85 44.60Q119.15 44.60 119.85 43.50Q120.55 42.40 120.55 40.40L120.55 40.10ZM168.55 43.60L168.55 51.80L152.75 51.80L152.75 43.60L154.85 43.60L154.85 35.40Q154.85 33.75 154.15 32.98Q153.45 32.20 152.05 32.20Q149.05 32.20 149.05 35.40L149.05 43.60L151.15 43.60L151.15 51.80L135.35 51.80L135.35 43.60L137.55 43.60L137.55 32.20L135.35 32.20L135.35 24.00L149.05 24.00L149.05 27.90Q152.65 23.30 158.05 23.30Q162.20 23.30 164.28 25.90Q166.35 28.50 166.35 33.05L166.35 43.60L168.55 43.60ZM185.05 52.50Q177.95 52.50 173.95 48.78Q169.95 45.05 169.95 37.90Q169.95 30.75 173.95 27.03Q177.95 23.30 185.05 23.30Q192.10 23.30 195.23 26.98Q198.35 30.65 198.35 36.10L198.35 39.70L182.15 39.70L182.15 40Q182.15 41.85 183.25 42.73Q184.35 43.60 186.90 43.60Q189.95 43.60 192.70 43.15Q195.45 42.70 197.50 42L197.50 50.00Q195.75 50.95 192.38 51.73Q189.00 52.50 185.05 52.50M187.95 34.20L187.95 33.60Q187.95 31.90 187.23 31.15Q186.50 30.40 185.05 30.40Q183.60 30.40 182.88 31.18Q182.15 31.95 182.15 33.60L182.15 34.20L187.95 34.20ZM212.20 52.50Q206.90 52.50 204.23 49.93Q201.55 47.35 201.55 41.25L201.55 32.20L199.35 32.20L199.35 24.00Q201.25 24.00 202.20 23.03Q203.15 22.05 203.15 20.35L203.15 18.10L213.75 18.10L213.75 24.00L220.50 24.00L220.50 32.20L213.75 32.20L213.75 40.40Q213.75 42.05 214.48 42.83Q215.20 43.60 216.65 43.60Q218.55 43.60 220.80 43.15L220.80 51.00Q219.40 51.55 217.03 52.03Q214.65 52.50 212.20 52.50ZM237.50 51.80L237.50 43.60L240.00 43.60L240.00 21.10L237.50 21.10L237.50 12.90L258.60 12.90L258.60 21.10L254.00 21.10L254.00 43.60L258.50 43.60L258.50 39L268.45 39L268.45 51.80L237.50 51.80ZM270.15 51.80L270.15 43.60L272.65 43.60L272.65 21.10L270.15 21.10L270.15 12.90L289.15 12.90L289.15 21.10L286.65 21.10L286.65 43.60L289.15 43.60L289.15 51.80L270.15 51.80ZM328.85 39.30L326.35 39.30L326.35 49.30Q324.15 50.55 319.93 51.53Q315.70 52.50 310.80 52.50Q301.45 52.50 296.15 47.58Q290.85 42.65 290.85 32.35Q290.85 21.80 296.13 17Q301.40 12.20 311.20 12.20Q315.95 12.20 320.10 13.20Q324.25 14.20 326.35 15.45L326.35 27.40L313.85 27.40L313.85 25.05Q313.85 22.95 312.98 22.03Q312.10 21.10 310.20 21.10Q308.30 21.10 307.43 22.03Q306.55 22.95 306.55 25.05L306.55 39.65Q306.55 41.75 307.43 42.68Q308.30 43.60 310.20 43.60Q312.10 43.60 312.98 42.68Q313.85 41.75 313.85 39.65L313.85 39.30L311.15 39.30L311.15 31.85L328.85 31.85L328.85 39.30ZM366.95 43.60L368.95 43.60L368.95 51.80L349.35 51.80L349.35 43.60L352.35 43.60L351.55 39.60L344.75 39.60L343.95 43.60L346.95 43.60L346.95 51.80L329.85 51.80L329.85 43.60L331.85 43.60L340.30 12.90L358.50 12.90L366.95 43.60M345.85 34.30L350.45 34.30L348.40 24.35L347.90 24.35L345.85 34.30ZM370.55 51.80L370.55 43.60L373.05 43.60L373.05 21.10L370.55 21.10L370.55 12.90L389.55 12.90L389.55 21.10L387.05 21.10L387.05 43.60L389.55 43.60L389.55 51.80L370.55 51.80ZM391.55 43.60L394.05 43.60L394.05 21.10L391.55 21.10L391.55 12.90L414.50 12.90Q420.95 12.90 424.35 15.55Q427.75 18.20 427.75 24.15Q427.75 27.50 426.40 29.95Q425.05 32.40 422.55 33.35L422.60 33.85Q427.40 34.60 427.40 39.75L427.40 43.60L429.75 43.60L429.75 51.80L413.90 51.80L413.90 40.05Q413.90 38.10 413.33 37.10Q412.75 36.10 411.53 35.75Q410.30 35.40 408.05 35.40L408.05 43.60L411.35 43.60L411.35 51.80L391.55 51.80L391.55 43.60M410.75 29.30Q412.20 29.30 412.93 28.53Q413.65 27.75 413.65 26.10L413.65 24.30Q413.65 22.65 412.93 21.88Q412.20 21.10 410.75 21.10L408.05 21.10L408.05 29.30L410.75 29.30Z"/></g></g></svg>